<?xml version="1.0" encoding="utf-8"?>
<!-- Generator: Adobe Illustrator 21.0.0, SVG Export Plug-In . SVG Version: 6.00 Build 0)  -->
<svg version="1.1" id="Layer_1" xmlns="http://www.w3.org/2000/svg" xmlns:xlink="http://www.w3.org/1999/xlink" x="0px" y="0px"
	 viewBox="0 0 40 59.1" style="enable-background:new 0 0 40 59.1;" xml:space="preserve">
<style type="text/css">
	.st0{fill:#FFFFFF;}
</style>
<g>
	<rect x="0.2" y="45.8" class="st0" width="3" height="3"/>
	<rect x="10.9" y="45.8" class="st0" width="3" height="3"/>
	<rect x="0.2" y="50.2" class="st0" width="3" height="8.9"/>
	<rect x="37" y="56.2" class="st0" width="3" height="3"/>
	<rect x="37" y="45.8" class="st0" width="3" height="8.9"/>
	<path class="st0" d="M4.9,50.2v8.9h9v-8.9H4.9z M10.9,56.2h-3l0-3h3L10.9,56.2z"/>
	<path class="st0" d="M40,0H0v39.8h21.6v6l7.8-6H40V0z M34,33.9h-4.6l-4.4,4v-4H6V6h28V33.9z"/>
	<path class="st0" d="M18.6,57.4v-1h6v-6.2h-9v8.9l9,0v-1.7L18.6,57.4z M18.6,51.9h3v3h-3V51.9z"/>
	<path class="st0" d="M32.3,51.9v1h-6v6.2h9v-8.9l-9,0V52L32.3,51.9z M32.3,57.4h-3v-3h3V57.4z"/>
</g>
</svg>
