<?xml version="1.0" encoding="utf-8"?>
<!-- Generator: Adobe Illustrator 21.0.0, SVG Export Plug-In . SVG Version: 6.00 Build 0)  -->
<svg version="1.1" id="Layer_1" xmlns="http://www.w3.org/2000/svg" xmlns:xlink="http://www.w3.org/1999/xlink" x="0px" y="0px"
	 viewBox="0 0 39 39" style="enable-background:new 0 0 39 39;" xml:space="preserve">
<style type="text/css">
	.st0{fill:#FFFFFF;}
</style>
<path class="st0" d="M19.5,39C8.7,39,0,30.3,0,19.5S8.7,0,19.5,0S39,8.7,39,19.5S30.3,39,19.5,39z M19.5,2C9.9,2,2,9.9,2,19.5
	S9.9,37,19.5,37S37,29.1,37,19.5S29.1,2,19.5,2z"/>
<path class="st0" d="M19.5,6C12,6,6,12,6,19.5S12,33,19.5,33S33,27,33,19.5S27,6,19.5,6z M23.4,19.9l-6.9,6.9
	c-0.2,0.2-0.6,0.2-0.9,0s-0.2-0.6,0-0.9l6.4-6.4l-6.4-6.4c-0.2-0.2-0.2-0.6,0-0.9c0.1-0.1,0.3-0.2,0.4-0.2c0.2,0,0.3,0.1,0.4,0.2
	l6.9,6.9c0.1,0.1,0.2,0.3,0.2,0.4C23.6,19.7,23.5,19.8,23.4,19.9z"/>
</svg>
