<?xml version="1.0" encoding="utf-8"?>
<!-- Generator: Adobe Illustrator 21.0.0, SVG Export Plug-In . SVG Version: 6.00 Build 0)  -->
<svg version="1.1" id="Layer_1" xmlns="http://www.w3.org/2000/svg" xmlns:xlink="http://www.w3.org/1999/xlink" x="0px" y="0px"
	 viewBox="0 0 100.1 100" style="enable-background:new 0 0 100.1 100;" xml:space="preserve">
<style type="text/css">
	.st0{fill:#FFFFFF;}
</style>
<g>
	<polygon class="st0" points="99.9,50 0.4,99.8 0.4,0.2 99.9,50 	"/>
	<path class="st0" d="M0.4,100c0,0-0.1,0-0.1,0c-0.1,0-0.1-0.1-0.1-0.2V0.2c0-0.1,0-0.2,0.1-0.2c0.1,0,0.2,0,0.2,0L100,49.8
		c0.1,0,0.1,0.1,0.1,0.2s-0.1,0.2-0.1,0.2L0.5,100C0.5,100,0.4,100,0.4,100z M0.6,0.6v98.7L99.3,50L0.6,0.6z"/>
</g>
</svg>
